Coordinates
version=1
nRows=12
nColumns=34
inDegrees=yes

Units are S.I. units (second, meters, Newtons, ...)
If the header above contains a line with 'inDegrees', this indicates whether rotational values are in degrees (yes) or radians (no).

endheader
time	pelvis_tilt	pelvis_list	pelvis_rotation	pelvis_tx	pelvis_ty	pelvis_tz	hip_flexion_r	hip_adduction_r	hip_rotation_r	knee_angle_r	ankle_angle_r	subtalar_angle_r	mtp_angle_r	hip_flexion_l	hip_adduction_l	hip_rotation_l	knee_angle_l	ankle_angle_l	subtalar_angle_l	mtp_angle_l	lumbar_extension	lumbar_bending	lumbar_rotation	arm_flex_r	arm_add_r	arm_rot_r	elbow_flex_r	pro_sup_r	arm_flex_l	arm_add_l	arm_rot_l	elbow_flex_l	pro_sup_l
      2.96666670	    -20.90658190	      1.07662254	     -0.88864877	      0.62919465	      0.53186710	     -0.08807189	    102.61408542	    -19.06577676	      8.70872862	    111.05301811	     35.86632061	     10.55837537	      0.00000000	    107.75638836	    -22.03991126	      6.21174826	    110.04196438	     24.99212318	      3.78722278	      0.00000000	    -54.16679770	      1.40138212	      5.72665936	    129.89718388	    -17.30889099	     48.22703298	    105.98632653	     89.90141623	    113.07033185	    -20.64945833	     33.61980354	    109.96226290	     86.75614798
      2.98333330	    -21.55675273	      0.61356235	     -0.72999953	      0.62827364	      0.52510444	     -0.08539959	    103.73362214	    -18.93704360	      8.71983707	    112.14102198	     36.38875738	     10.53468050	      0.00000000	    109.42570651	    -21.98388686	      7.18709736	    110.90253210	     24.82731352	      3.54480970	      0.00000000	    -54.18429530	      1.40283355	      5.95553886	    130.66003230	    -16.79670662	     48.45509050	    104.71019503	     90.50850718	    115.01244442	    -20.06318122	     35.22829911	    109.51228256	     87.31513128
      3.00000000	    -22.37986362	      0.42935570	     -0.68861900	      0.63364213	      0.52368467	     -0.08359737	    104.74984215	    -18.72220459	      8.72649872	    112.95989028	     36.66230151	     10.05859681	      0.00000000	    110.62312299	    -22.23470027	      7.63045872	    111.44758056	     24.70247680	      3.29775413	      0.00000000	    -53.65935350	      0.90539555	      5.44863336	    130.26853863	    -16.75623815	     48.15113839	    103.41857529	     91.76565481	    116.31895089	    -19.60753544	     38.04207360	    108.98734741	     88.59428773
      3.01666670	    -23.31313069	      0.27640284	     -0.81290685	      0.63944202	      0.52523586	     -0.08453081	    105.29752767	    -18.42418442	      8.44507596	    113.15160640	     36.95974113	      9.73665202	      0.00000000	    111.34827333	    -22.61245800	      7.78709363	    111.60496563	     24.65163399	      3.08081753	      0.00000000	    -52.79110233	      0.59209515	      5.52730183	    129.84226561	    -17.14147715	     48.94224523	    101.20946617	     91.91773683	    115.70687629	    -18.99581502	     39.66036952	    108.02602685	     88.83306783
      3.03333330	    -24.06137711	      0.23724476	     -0.72227346	      0.64266761	      0.52810383	     -0.08400843	    105.41038356	    -18.30537913	      8.25052447	    112.93832191	     36.91804984	      9.08762806	      0.00000000	    111.39974220	    -22.71886421	      7.58241473	    111.32620741	     24.57058353	      2.75489872	      0.00000000	    -51.70660010	      0.36065696	      5.27278754	    128.96450701	    -17.63277908	     50.11298564	     97.98699634	     91.90729950	    114.27363166	    -18.09338821	     40.44126902	    104.61127182	     88.90923509
      3.05000000	    -25.05498580	      0.46086201	     -0.51518390	      0.64473478	      0.53995510	     -0.08304342	    104.89249888	    -17.80307158	      8.12077007	    111.39614951	     36.68434015	      8.17154951	      0.00000000	    110.68983797	    -22.59046957	      6.66275431	    109.96138985	     24.58280893	      2.23068280	      0.00000000	    -50.46194947	      0.06403621	      5.37308668	    127.38466940	    -18.80314944	     51.03110746	     91.66033787	     91.59561470	    112.21953576	    -16.69898375	     40.23776209	     98.44999159	     88.67986636
      3.06666670	    -25.89387464	      0.23200104	     -0.23783834	      0.65940510	      0.55036758	     -0.07749825	    103.78082308	    -17.79863235	      7.18644524	    110.42623662	     36.69486637	      7.32426098	      0.00000000	    109.55996594	    -22.68920929	      6.52807150	    108.35752189	     24.81272562	      3.00002257	      0.00000000	    -49.18202081	     -0.01806691	      5.13782293	    124.91514799	    -19.31992567	     51.36754631	     83.79939365	     90.88951078	    110.51711387	    -17.02815195	     39.80159195	     89.85703523	     88.25449858
      3.08333330	    -26.55972069	      0.10613652	     -0.26568756	      0.67075004	      0.56098967	     -0.08488960	    101.97397841	    -17.86220151	      6.26945177	    108.87521438	     36.86062005	      6.77259581	      0.00000000	    107.67355003	    -22.93443631	      5.71317075	    106.77017442	     25.83294100	      3.70307761	      0.00000000	    -47.59412073	     -0.12867658	      4.83729038	    121.09496061	    -19.89729752	     51.23146094	     76.62082519	     90.04517552	    107.59614959	    -17.81661234	     38.85614854	     82.09589041	     87.70505770
      3.10000000	    -26.73062836	      0.11420409	     -0.49329623	      0.66759975	      0.57308724	     -0.09421395	     99.84443297	    -18.05266589	      5.65796469	    106.52044824	     36.74480100	      6.90224735	      0.00000000	    105.52830452	    -22.69799079	      4.67053956	    105.13344341	     26.35521506	      3.22758860	      0.00000000	    -46.83928649	     -0.16853974	      4.62080099	    118.30831915	    -19.83577277	     51.16084461	     66.89587610	     89.12269909	    105.81077105	    -18.46877171	     37.79213538	     71.00369456	     87.11612680
      3.11666670	    -26.54946258	     -0.13844649	     -0.55330764	      0.66946766	      0.58725704	     -0.09491192	     97.96792805	    -18.22675521	      5.52701534	    104.52076658	     35.22691317	      7.12958031	      0.00000000	    103.38788542	    -22.19815015	      4.11562253	    103.48134624	     26.36403225	      2.35414732	      0.00000000	    -46.81669513	      0.01232307	      4.52067660	    115.47105011	    -20.03718863	     50.98812228	     56.68351043	     87.63233286	    105.19047127	    -19.51382450	     38.75314092	     58.33979230	     86.27619381
      3.13333330	    -26.09213142	     -0.36176940	     -0.52520633	      0.67229533	      0.60265580	     -0.09796122	     95.10986108	    -18.22141697	      4.83989034	    101.93667660	     34.97564014	      7.14870263	      0.00000000	    100.68729121	    -21.62333631	      3.37071620	    101.52829757	     26.62557845	      1.82719240	      0.00000000	    -47.14279160	      0.27896881	      3.93442416	    112.13594491	    -20.52608566	     51.76554293	     47.30988122	     85.34083654	    105.51436014	    -21.47120025	     43.88982204	     43.96720120	     84.21627106
      3.15000000	    -25.80637415	     -0.52302131	     -0.66360430	      0.66901083	      0.62073409	     -0.09784367	     92.18497735	    -17.83551541	      3.86395984	     98.62414600	     34.13922019	      6.46455534	      0.00000000	     97.38320391	    -20.64067005	      3.08680900	     97.83077773	     27.15788597	      2.18659379	      0.00000000	    -47.28057139	      0.46766540	      2.77005816	    107.85848119	    -20.81671835	     52.92676720	     37.98004105	     82.52080641	    105.80478347	    -24.63886195	     56.19410556	     29.81548491	     79.40079765
